<svg width="288" height="78" viewBox="0 0 288 78" fill="none" xmlns="http://www.w3.org/2000/svg">
<path fill-rule="evenodd" clip-rule="evenodd" d="M48 48H84.0799L87.7465 4L87.9132 2H85.9063H15C14.4477 2 14 1.55228 14 1C14 0.447715 14.4477 0 15 0H87.9132C89.0833 0 90.0035 1.00006 89.9063 2.16609L86.073 48.1661C85.9866 49.2027 85.12 50 84.0799 50H48H4C3.44772 50 3 49.5523 3 49C3 48.4477 3.44772 48 4 48H48ZM61.4166 54H89.7692L93.913 10.9043C93.9624 10.3914 94.3932 10 94.9085 10H121.307C121.724 10 122.097 10.2586 122.243 10.6489L130.923 33.7955C130.974 33.9302 130.995 34.0743 130.984 34.2179L129.714 52L129.571 54H131.577H138.867C139.469 54 139.934 54.5272 139.859 55.124L139.109 61.124C139.047 61.6245 138.622 62 138.117 62H128.069H127.496C125.72 55.0991 119.455 50 112 50C104.545 50 98.2802 55.0991 96.5041 62H90.1008H63.4959C62.9235 59.7761 61.885 57.7393 60.4907 56C59.9133 55.2797 59.2749 54.6104 58.5833 54H61.4166ZM137.234 60H128.975C126.504 53.0098 119.839 48 112 48C104.161 48 97.4959 53.0098 95.0248 60H90.1008H64.9752C64.4716 58.5753 63.7942 57.2335 62.9686 56H89.7692H91.5862L91.7601 54.1914L95.8169 12H120.614L128.974 34.2932L127.577 53.8575L127.423 56H129.571H137.734L137.234 60ZM102.411 16C100.862 16 99.5683 17.1784 99.4237 18.72L101.415 18.9067L99.4237 18.72L98.1112 32.72C97.9463 34.4797 99.3307 36 101.098 36H120.54C122.649 36 124.099 33.8821 123.337 31.916L117.912 17.916C117.465 16.7611 116.354 16 115.115 16H102.411ZM101.415 18.9067C101.463 18.3928 101.895 18 102.411 18H115.115C115.528 18 115.898 18.2537 116.047 18.6387L121.472 32.6387C121.726 33.294 121.243 34 120.54 34H101.098C100.509 34 100.048 33.4932 100.103 32.9067L101.415 18.9067ZM17.2656 60L17.7656 56H33.0314C32.2058 57.2335 31.5284 58.5753 31.0248 60H17.2656ZM16.8828 54H34.5834H37.4167C36.7251 54.6104 36.0867 55.2797 35.5093 56C34.115 57.7393 33.0765 59.7761 32.5041 62H16.1328C15.5313 62 15.0659 61.4728 15.1405 60.876L15.8905 54.876C15.9531 54.3755 16.3785 54 16.8828 54ZM5 0C4.44772 0 4 0.447715 4 1C4 1.55228 4.44772 2 5 2H9C9.55229 2 10 1.55228 10 1C10 0.447715 9.55229 0 9 0H5ZM20 6C19.4477 6 19 6.44772 19 7C19 7.55228 19.4477 8 20 8H26C26.5523 8 27 7.55228 27 7C27 6.44772 26.5523 6 26 6H20ZM1 12C0.447715 12 0 12.4477 0 13C0 13.5523 0.447715 14 1 14H24C24.5523 14 25 13.5523 25 13C25 12.4477 24.5523 12 24 12H1ZM7 18C6.44772 18 6 18.4477 6 19C6 19.5523 6.44772 20 7 20H20C20.5523 20 21 19.5523 21 19C21 18.4477 20.5523 18 20 18H7ZM14 24C13.4477 24 13 24.4477 13 25C13 25.5523 13.4477 26 14 26H24C24.5523 26 25 25.5523 25 25C25 24.4477 24.5523 24 24 24H14ZM2 30C1.44772 30 1 30.4477 1 31C1 31.5523 1.44772 32 2 32H13C13.5523 32 14 31.5523 14 31C14 30.4477 13.5523 30 13 30H2ZM5 36C4.44772 36 4 36.4477 4 37C4 37.5523 4.44772 38 5 38H19C19.5523 38 20 37.5523 20 37C20 36.4477 19.5523 36 19 36H5ZM10 42C9.44771 42 9 42.4477 9 43C9 43.5523 9.44771 44 10 44H24C24.5523 44 25 43.5523 25 43C25 42.4477 24.5523 42 24 42H10ZM48 76C53.5229 76 58 71.5229 58 66C58 60.4772 53.5229 56 48 56C42.4772 56 38 60.4772 38 66C38 71.5229 42.4772 76 48 76ZM48 78C54.6274 78 60 72.6274 60 66C60 59.3726 54.6274 54 48 54C41.3726 54 36 59.3726 36 66C36 72.6274 41.3726 78 48 78ZM112 76C117.523 76 122 71.5229 122 66C122 60.4772 117.523 56 112 56C106.477 56 102 60.4772 102 66C102 71.5229 106.477 76 112 76ZM112 78C118.627 78 124 72.6274 124 66C124 59.3726 118.627 54 112 54C105.373 54 100 59.3726 100 66C100 72.6274 105.373 78 112 78ZM52 66C52 68.2091 50.2091 70 48 70C45.7909 70 44 68.2091 44 66C44 63.7909 45.7909 62 48 62C50.2091 62 52 63.7909 52 66ZM54 66C54 69.3137 51.3137 72 48 72C44.6863 72 42 69.3137 42 66C42 62.6863 44.6863 60 48 60C51.3137 60 54 62.6863 54 66ZM112 70C114.209 70 116 68.2091 116 66C116 63.7909 114.209 62 112 62C109.791 62 108 63.7909 108 66C108 68.2091 109.791 70 112 70ZM112 72C115.314 72 118 69.3137 118 66C118 62.6863 115.314 60 112 60C108.686 60 106 62.6863 106 66C106 69.3137 108.686 72 112 72ZM191 1C191 0.447715 191.448 0 192 0H287C287.552 0 288 0.447715 288 1C288 1.55228 287.552 2 287 2H193V57C193 57.5523 192.552 58 192 58H173C172.448 58 172 57.5523 172 57V53C172 52.4477 172.448 52 173 52C173.552 52 174 52.4477 174 53V56H191V1ZM166 36.4172V56H156C155.448 56 155 56.4477 155 57C155 57.5523 155.448 58 156 58H167C167.552 58 168 57.5523 168 57V36.8569C168.655 36.9513 169.323 37 170 37C170.677 37 171.345 36.9513 172 36.8569V47C172 47.5523 172.448 48 173 48C173.552 48 174 47.5523 174 47V36.4172C180.901 34.3635 186 27.1203 186 18.5C186 8.28273 178.837 0 170 0C161.163 0 154 8.28273 154 18.5C154 27.1203 159.099 34.3635 166 36.4172ZM267 57C267 56.4477 267.448 56 268 56H280C280.552 56 281 56.4477 281 57C281 57.5523 280.552 58 280 58H268C267.448 58 267 57.5523 267 57ZM69 77C69 76.4477 69.4477 76 70 76H91C91.5523 76 92 76.4477 92 77C92 77.5523 91.5523 78 91 78H70C69.4477 78 69 77.5523 69 77ZM135 77C135 76.4477 135.448 76 136 76H226C226.552 76 227 76.4477 227 77C227 77.5523 226.552 78 226 78H136C135.448 78 135 77.5523 135 77ZM231 77C231 76.4477 231.448 76 232 76H272C272.552 76 273 76.4477 273 77C273 77.5523 272.552 78 272 78H232C231.448 78 231 77.5523 231 77ZM184 18.5C184 27.8951 177.469 35 170 35C162.531 35 156 27.8951 156 18.5C156 9.10488 162.531 2 170 2C177.469 2 184 9.10488 184 18.5ZM201 10H202H218H219V11V27V28H218H215C214.448 28 214 27.5523 214 27C214 26.4477 214.448 26 215 26H217V12H203V26H209C209.552 26 210 26.4477 210 27C210 27.5523 209.552 28 209 28H202H201V27V11V10ZM202 36H201V37V53V54H202H218H219V53V45C219 44.4477 218.552 44 218 44C217.448 44 217 44.4477 217 45V52H203V38H218C218.552 38 219 37.5523 219 37C219 36.4477 218.552 36 218 36H202ZM227 11C227 10.4477 227.448 10 228 10H244H245V11V27V28H244H228H227V27V17C227 16.4477 227.448 16 228 16C228.552 16 229 16.4477 229 17V26H243V12H228C227.448 12 227 11.5523 227 11ZM228 36H227V37V53V54H228H231C231.552 54 232 53.5523 232 53C232 52.4477 231.552 52 231 52H229V38H233C233.552 38 234 37.5523 234 37C234 36.4477 233.552 36 233 36H228ZM245 42C245 41.4477 244.552 41 244 41C243.448 41 243 41.4477 243 42V52H237C236.448 52 236 52.4477 236 53C236 53.5523 236.448 54 237 54H244H245V53V42ZM253 36H254H263C263.552 36 264 36.4477 264 37C264 37.5523 263.552 38 263 38H255V41C255 41.5523 254.552 42 254 42C253.448 42 253 41.5523 253 41V37V36ZM254 10H253V11V27V28H254H266C266.552 28 267 27.5523 267 27C267 26.4477 266.552 26 266 26H255V12H270C270.552 12 271 11.5523 271 11C271 10.4477 270.552 10 270 10H254Z"/>
</svg>
